<mxfile host="Electron" modified="2023-05-23T18:05:02.923Z" agent="Mozilla/5.0 (X11; Linux x86_64) AppleWebKit/537.36 (KHTML, like Gecko) draw.io/21.2.8 Chrome/112.0.5615.165 Electron/24.2.0 Safari/537.36" etag="QOGApp9wBuEprnrmypqh" version="21.2.8" type="device" pages="3">
  <diagram name="Page-1" id="66x4gADZPro4NC6LPw2c">
    <mxGraphModel dx="1687" dy="992" grid="1" gridSize="10" guides="1" tooltips="1" connect="1" arrows="1" fold="1" page="1" pageScale="1" pageWidth="827" pageHeight="1169" math="0" shadow="0">
      <root>
        <mxCell id="0" />
        <mxCell id="1" parent="0" />
        <mxCell id="4IzXx20uwHOz1poD9rbi-10" value="" style="group" parent="1" vertex="1" connectable="0">
          <mxGeometry x="860" y="240" width="380" height="320" as="geometry" />
        </mxCell>
        <mxCell id="4IzXx20uwHOz1poD9rbi-1" value="" style="group" parent="4IzXx20uwHOz1poD9rbi-10" vertex="1" connectable="0">
          <mxGeometry width="380" height="320" as="geometry" />
        </mxCell>
        <mxCell id="4IzXx20uwHOz1poD9rbi-2" value="" style="shape=cube;whiteSpace=wrap;html=1;boundedLbl=1;backgroundOutline=1;darkOpacity=0.05;darkOpacity2=0.1;size=10;fillColor=#bac8d3;strokeColor=#23445d;" parent="4IzXx20uwHOz1poD9rbi-1" vertex="1">
          <mxGeometry x="60" y="10" width="260" height="250" as="geometry" />
        </mxCell>
        <mxCell id="4IzXx20uwHOz1poD9rbi-3" value="" style="shape=cube;whiteSpace=wrap;html=1;boundedLbl=1;backgroundOutline=1;darkOpacity=0.05;darkOpacity2=0.1;size=10;fillColor=#b1ddf0;strokeColor=#10739e;" parent="4IzXx20uwHOz1poD9rbi-1" vertex="1">
          <mxGeometry x="70" y="20" width="260" height="250" as="geometry" />
        </mxCell>
        <mxCell id="4IzXx20uwHOz1poD9rbi-4" value="" style="shape=cube;whiteSpace=wrap;html=1;boundedLbl=1;backgroundOutline=1;darkOpacity=0.05;darkOpacity2=0.1;size=10;" parent="4IzXx20uwHOz1poD9rbi-1" vertex="1">
          <mxGeometry x="80" y="30" width="260" height="250" as="geometry" />
        </mxCell>
        <mxCell id="4IzXx20uwHOz1poD9rbi-5" value="&lt;b&gt;&lt;font style=&quot;font-size: 30px;&quot;&gt;W&#39;&lt;/font&gt;&lt;/b&gt;" style="text;html=1;strokeColor=none;fillColor=none;align=center;verticalAlign=middle;whiteSpace=wrap;rounded=0;" parent="4IzXx20uwHOz1poD9rbi-1" vertex="1">
          <mxGeometry x="180" y="303" width="60" height="30" as="geometry" />
        </mxCell>
        <mxCell id="4IzXx20uwHOz1poD9rbi-6" value="&lt;b&gt;&lt;font style=&quot;font-size: 30px;&quot;&gt;H&#39;&lt;/font&gt;&lt;/b&gt;" style="text;html=1;strokeColor=none;fillColor=none;align=center;verticalAlign=middle;whiteSpace=wrap;rounded=0;" parent="4IzXx20uwHOz1poD9rbi-1" vertex="1">
          <mxGeometry y="120" width="60" height="30" as="geometry" />
        </mxCell>
        <mxCell id="4IzXx20uwHOz1poD9rbi-7" value="&lt;b style=&quot;font-size: 30px;&quot;&gt;C&lt;sub&gt;out&lt;/sub&gt;&lt;/b&gt;" style="text;html=1;strokeColor=none;fillColor=none;align=center;verticalAlign=middle;whiteSpace=wrap;rounded=0;fontSize=20;" parent="4IzXx20uwHOz1poD9rbi-1" vertex="1">
          <mxGeometry x="327" y="7" width="60" height="30" as="geometry" />
        </mxCell>
        <mxCell id="4IzXx20uwHOz1poD9rbi-8" value="" style="shape=cube;whiteSpace=wrap;html=1;boundedLbl=1;backgroundOutline=1;darkOpacity=0.05;darkOpacity2=0.1;size=10;" parent="4IzXx20uwHOz1poD9rbi-10" vertex="1">
          <mxGeometry x="90" y="40" width="260" height="250" as="geometry" />
        </mxCell>
        <mxCell id="4IzXx20uwHOz1poD9rbi-9" value="" style="shape=cube;whiteSpace=wrap;html=1;boundedLbl=1;backgroundOutline=1;darkOpacity=0.05;darkOpacity2=0.1;size=10;fillColor=#b0e3e6;strokeColor=#0e8088;" parent="4IzXx20uwHOz1poD9rbi-10" vertex="1">
          <mxGeometry x="100" y="50" width="260" height="250" as="geometry" />
        </mxCell>
        <mxCell id="tD_yghVAK_nTMsRzhmy0-17" value="" style="group" parent="1" vertex="1" connectable="0">
          <mxGeometry x="530" y="199" width="100" height="390" as="geometry" />
        </mxCell>
        <mxCell id="tD_yghVAK_nTMsRzhmy0-13" value="" style="shape=cube;whiteSpace=wrap;html=1;boundedLbl=1;backgroundOutline=1;darkOpacity=0.05;darkOpacity2=0.1;size=30;fillColor=#b1ddf0;strokeColor=#10739e;" parent="tD_yghVAK_nTMsRzhmy0-17" vertex="1">
          <mxGeometry y="110" width="100" height="100" as="geometry" />
        </mxCell>
        <mxCell id="tD_yghVAK_nTMsRzhmy0-15" value="" style="shape=cube;whiteSpace=wrap;html=1;boundedLbl=1;backgroundOutline=1;darkOpacity=0.05;darkOpacity2=0.1;size=30;fillColor=#bac8d3;strokeColor=#23445d;" parent="tD_yghVAK_nTMsRzhmy0-17" vertex="1">
          <mxGeometry width="100" height="100" as="geometry" />
        </mxCell>
        <mxCell id="tD_yghVAK_nTMsRzhmy0-16" value="" style="shape=cube;whiteSpace=wrap;html=1;boundedLbl=1;backgroundOutline=1;darkOpacity=0.05;darkOpacity2=0.1;size=30;fillColor=#b0e3e6;strokeColor=#0e8088;" parent="tD_yghVAK_nTMsRzhmy0-17" vertex="1">
          <mxGeometry y="290" width="100" height="100" as="geometry" />
        </mxCell>
        <mxCell id="tD_yghVAK_nTMsRzhmy0-33" value="&lt;b&gt;&lt;font style=&quot;font-size: 36px;&quot;&gt;. . .&lt;/font&gt;&lt;/b&gt;" style="text;html=1;strokeColor=none;fillColor=none;align=center;verticalAlign=middle;whiteSpace=wrap;rounded=0;rotation=90;" parent="tD_yghVAK_nTMsRzhmy0-17" vertex="1">
          <mxGeometry x="30" y="240" width="60" height="30" as="geometry" />
        </mxCell>
        <mxCell id="zLH4JwXge2nKOZklDTiY-1" style="edgeStyle=orthogonalEdgeStyle;rounded=0;orthogonalLoop=1;jettySize=auto;html=1;entryX=0.006;entryY=0.65;entryDx=0;entryDy=0;entryPerimeter=0;" parent="1" target="4IzXx20uwHOz1poD9rbi-3" edge="1">
          <mxGeometry relative="1" as="geometry">
            <mxPoint x="371.67050128270444" y="422.3344013171584" as="sourcePoint" />
            <mxPoint x="850.012484951867" y="422.0468567757182" as="targetPoint" />
          </mxGeometry>
        </mxCell>
        <mxCell id="L5GtT11vUQguHCWSpUgu-7" value="" style="group" parent="1" vertex="1" connectable="0">
          <mxGeometry x="34" y="250" width="380" height="320" as="geometry" />
        </mxCell>
        <mxCell id="L5GtT11vUQguHCWSpUgu-1" value="" style="shape=cube;whiteSpace=wrap;html=1;boundedLbl=1;backgroundOutline=1;darkOpacity=0.05;darkOpacity2=0.1;size=10;fillColor=#f8cecc;strokeColor=#b85450;" parent="L5GtT11vUQguHCWSpUgu-7" vertex="1">
          <mxGeometry x="60" y="10" width="260" height="250" as="geometry" />
        </mxCell>
        <mxCell id="L5GtT11vUQguHCWSpUgu-2" value="" style="shape=cube;whiteSpace=wrap;html=1;boundedLbl=1;backgroundOutline=1;darkOpacity=0.05;darkOpacity2=0.1;size=10;fillColor=#ffe6cc;strokeColor=#d79b00;" parent="L5GtT11vUQguHCWSpUgu-7" vertex="1">
          <mxGeometry x="70" y="20" width="260" height="250" as="geometry" />
        </mxCell>
        <mxCell id="L5GtT11vUQguHCWSpUgu-3" value="" style="shape=cube;whiteSpace=wrap;html=1;boundedLbl=1;backgroundOutline=1;darkOpacity=0.05;darkOpacity2=0.1;size=10;fillColor=#fff2cc;strokeColor=#d6b656;" parent="L5GtT11vUQguHCWSpUgu-7" vertex="1">
          <mxGeometry x="80" y="30" width="260" height="250" as="geometry" />
        </mxCell>
        <mxCell id="L5GtT11vUQguHCWSpUgu-4" value="&lt;b&gt;&lt;font style=&quot;font-size: 30px;&quot;&gt;W&lt;/font&gt;&lt;/b&gt;" style="text;html=1;strokeColor=none;fillColor=none;align=center;verticalAlign=middle;whiteSpace=wrap;rounded=0;" parent="L5GtT11vUQguHCWSpUgu-7" vertex="1">
          <mxGeometry x="180" y="290" width="60" height="30" as="geometry" />
        </mxCell>
        <mxCell id="L5GtT11vUQguHCWSpUgu-5" value="&lt;b&gt;&lt;font style=&quot;font-size: 30px;&quot;&gt;H&lt;/font&gt;&lt;/b&gt;" style="text;html=1;strokeColor=none;fillColor=none;align=center;verticalAlign=middle;whiteSpace=wrap;rounded=0;" parent="L5GtT11vUQguHCWSpUgu-7" vertex="1">
          <mxGeometry y="120" width="60" height="30" as="geometry" />
        </mxCell>
        <mxCell id="L5GtT11vUQguHCWSpUgu-6" value="&lt;b style=&quot;font-size: 30px;&quot;&gt;C&lt;sub style=&quot;&quot;&gt;in&lt;/sub&gt;&lt;/b&gt;" style="text;html=1;strokeColor=none;fillColor=none;align=center;verticalAlign=middle;whiteSpace=wrap;rounded=0;fontSize=20;" parent="L5GtT11vUQguHCWSpUgu-7" vertex="1">
          <mxGeometry x="320" width="60" height="30" as="geometry" />
        </mxCell>
        <mxCell id="fa-1LVLjvZmwd8tcyy5K-1" value="&lt;b&gt;&lt;font style=&quot;font-size: 30px;&quot;&gt;k&lt;/font&gt;&lt;/b&gt;" style="text;html=1;strokeColor=none;fillColor=none;align=center;verticalAlign=middle;whiteSpace=wrap;rounded=0;" parent="1" vertex="1">
          <mxGeometry x="480" y="230" width="60" height="30" as="geometry" />
        </mxCell>
        <mxCell id="fa-1LVLjvZmwd8tcyy5K-2" value="&lt;b&gt;&lt;font style=&quot;font-size: 30px;&quot;&gt;k&lt;/font&gt;&lt;/b&gt;" style="text;html=1;strokeColor=none;fillColor=none;align=center;verticalAlign=middle;whiteSpace=wrap;rounded=0;" parent="1" vertex="1">
          <mxGeometry x="542" y="170" width="60" height="30" as="geometry" />
        </mxCell>
        <mxCell id="fa-1LVLjvZmwd8tcyy5K-3" value="&lt;b style=&quot;font-size: 30px;&quot;&gt;C&lt;sub style=&quot;&quot;&gt;in&lt;/sub&gt;&lt;/b&gt;" style="text;html=1;strokeColor=none;fillColor=none;align=center;verticalAlign=middle;whiteSpace=wrap;rounded=0;fontSize=20;" parent="1" vertex="1">
          <mxGeometry x="610" y="190" width="60" height="30" as="geometry" />
        </mxCell>
        <mxCell id="fa-1LVLjvZmwd8tcyy5K-4" value="" style="curved=1;endArrow=none;html=1;rounded=0;endFill=0;" parent="1" edge="1">
          <mxGeometry width="50" height="50" relative="1" as="geometry">
            <mxPoint x="652" y="560" as="sourcePoint" />
            <mxPoint x="662" y="250" as="targetPoint" />
            <Array as="points">
              <mxPoint x="712" y="480" />
              <mxPoint x="712" y="320" />
            </Array>
          </mxGeometry>
        </mxCell>
        <mxCell id="fa-1LVLjvZmwd8tcyy5K-9" value="&lt;b style=&quot;font-size: 30px;&quot;&gt;C&lt;sub&gt;out&lt;/sub&gt;&lt;/b&gt;" style="text;html=1;strokeColor=none;fillColor=none;align=center;verticalAlign=middle;whiteSpace=wrap;rounded=0;fontSize=20;" parent="1" vertex="1">
          <mxGeometry x="727" y="378" width="60" height="30" as="geometry" />
        </mxCell>
      </root>
    </mxGraphModel>
  </diagram>
  <diagram id="m2cQW7KrZFjTD95BJ-4E" name="Page-2">
    <mxGraphModel dx="1434" dy="843" grid="1" gridSize="10" guides="1" tooltips="1" connect="1" arrows="1" fold="1" page="1" pageScale="1" pageWidth="827" pageHeight="1169" math="0" shadow="0">
      <root>
        <mxCell id="0" />
        <mxCell id="1" parent="0" />
        <mxCell id="tAQLiF5_e78hBvcNN1Tl-1" value="" style="group" parent="1" vertex="1" connectable="0">
          <mxGeometry x="1181" y="270" width="380" height="320" as="geometry" />
        </mxCell>
        <mxCell id="tAQLiF5_e78hBvcNN1Tl-2" value="" style="group" parent="tAQLiF5_e78hBvcNN1Tl-1" vertex="1" connectable="0">
          <mxGeometry width="380" height="320" as="geometry" />
        </mxCell>
        <mxCell id="tAQLiF5_e78hBvcNN1Tl-3" value="" style="shape=cube;whiteSpace=wrap;html=1;boundedLbl=1;backgroundOutline=1;darkOpacity=0.05;darkOpacity2=0.1;size=10;fillColor=#bac8d3;strokeColor=#23445d;" parent="tAQLiF5_e78hBvcNN1Tl-2" vertex="1">
          <mxGeometry x="60" y="10" width="260" height="250" as="geometry" />
        </mxCell>
        <mxCell id="tAQLiF5_e78hBvcNN1Tl-4" value="" style="shape=cube;whiteSpace=wrap;html=1;boundedLbl=1;backgroundOutline=1;darkOpacity=0.05;darkOpacity2=0.1;size=10;fillColor=#b1ddf0;strokeColor=#10739e;" parent="tAQLiF5_e78hBvcNN1Tl-2" vertex="1">
          <mxGeometry x="70" y="20" width="260" height="250" as="geometry" />
        </mxCell>
        <mxCell id="tAQLiF5_e78hBvcNN1Tl-5" value="" style="shape=cube;whiteSpace=wrap;html=1;boundedLbl=1;backgroundOutline=1;darkOpacity=0.05;darkOpacity2=0.1;size=10;" parent="tAQLiF5_e78hBvcNN1Tl-2" vertex="1">
          <mxGeometry x="80" y="30" width="260" height="250" as="geometry" />
        </mxCell>
        <mxCell id="tAQLiF5_e78hBvcNN1Tl-6" value="&lt;b&gt;&lt;font style=&quot;font-size: 30px;&quot;&gt;W&#39;&lt;/font&gt;&lt;/b&gt;" style="text;html=1;strokeColor=none;fillColor=none;align=center;verticalAlign=middle;whiteSpace=wrap;rounded=0;" parent="tAQLiF5_e78hBvcNN1Tl-2" vertex="1">
          <mxGeometry x="180" y="303" width="60" height="30" as="geometry" />
        </mxCell>
        <mxCell id="tAQLiF5_e78hBvcNN1Tl-7" value="&lt;b&gt;&lt;font style=&quot;font-size: 30px;&quot;&gt;H&#39;&lt;/font&gt;&lt;/b&gt;" style="text;html=1;strokeColor=none;fillColor=none;align=center;verticalAlign=middle;whiteSpace=wrap;rounded=0;" parent="tAQLiF5_e78hBvcNN1Tl-2" vertex="1">
          <mxGeometry y="120" width="60" height="30" as="geometry" />
        </mxCell>
        <mxCell id="tAQLiF5_e78hBvcNN1Tl-8" value="&lt;b style=&quot;font-size: 30px;&quot;&gt;C&lt;sub&gt;out&lt;/sub&gt;&lt;/b&gt;" style="text;html=1;strokeColor=none;fillColor=none;align=center;verticalAlign=middle;whiteSpace=wrap;rounded=0;fontSize=20;" parent="tAQLiF5_e78hBvcNN1Tl-2" vertex="1">
          <mxGeometry x="327" y="7" width="60" height="30" as="geometry" />
        </mxCell>
        <mxCell id="Aem5M7W_eRZbwuR8MGYX-1" value="" style="curved=1;endArrow=none;html=1;rounded=0;endFill=0;" parent="tAQLiF5_e78hBvcNN1Tl-2" edge="1">
          <mxGeometry width="50" height="50" relative="1" as="geometry">
            <mxPoint x="-101" y="290" as="sourcePoint" />
            <mxPoint x="-91" y="-20" as="targetPoint" />
            <Array as="points">
              <mxPoint x="-41" y="210" />
              <mxPoint x="-41" y="50" />
            </Array>
          </mxGeometry>
        </mxCell>
        <mxCell id="tAQLiF5_e78hBvcNN1Tl-9" value="" style="shape=cube;whiteSpace=wrap;html=1;boundedLbl=1;backgroundOutline=1;darkOpacity=0.05;darkOpacity2=0.1;size=10;" parent="tAQLiF5_e78hBvcNN1Tl-1" vertex="1">
          <mxGeometry x="90" y="40" width="260" height="250" as="geometry" />
        </mxCell>
        <mxCell id="tAQLiF5_e78hBvcNN1Tl-10" value="" style="shape=cube;whiteSpace=wrap;html=1;boundedLbl=1;backgroundOutline=1;darkOpacity=0.05;darkOpacity2=0.1;size=10;fillColor=#b0e3e6;strokeColor=#0e8088;" parent="tAQLiF5_e78hBvcNN1Tl-1" vertex="1">
          <mxGeometry x="100" y="50" width="260" height="250" as="geometry" />
        </mxCell>
        <mxCell id="ta9T8yQsvxKugUh9Nd6L-8" value="" style="group" parent="1" vertex="1" connectable="0">
          <mxGeometry x="590" y="264" width="380" height="320" as="geometry" />
        </mxCell>
        <mxCell id="ta9T8yQsvxKugUh9Nd6L-9" value="" style="shape=cube;whiteSpace=wrap;html=1;boundedLbl=1;backgroundOutline=1;darkOpacity=0.05;darkOpacity2=0.1;size=10;fillColor=#f8cecc;strokeColor=#b85450;" parent="ta9T8yQsvxKugUh9Nd6L-8" vertex="1">
          <mxGeometry x="60" y="10" width="260" height="250" as="geometry" />
        </mxCell>
        <mxCell id="ta9T8yQsvxKugUh9Nd6L-10" value="" style="shape=cube;whiteSpace=wrap;html=1;boundedLbl=1;backgroundOutline=1;darkOpacity=0.05;darkOpacity2=0.1;size=10;fillColor=#ffe6cc;strokeColor=#d79b00;" parent="ta9T8yQsvxKugUh9Nd6L-8" vertex="1">
          <mxGeometry x="70" y="20" width="260" height="250" as="geometry" />
        </mxCell>
        <mxCell id="ta9T8yQsvxKugUh9Nd6L-11" value="" style="shape=cube;whiteSpace=wrap;html=1;boundedLbl=1;backgroundOutline=1;darkOpacity=0.05;darkOpacity2=0.1;size=10;fillColor=#fff2cc;strokeColor=#d6b656;" parent="ta9T8yQsvxKugUh9Nd6L-8" vertex="1">
          <mxGeometry x="80" y="30" width="260" height="250" as="geometry" />
        </mxCell>
        <mxCell id="ta9T8yQsvxKugUh9Nd6L-12" value="&lt;b&gt;&lt;font style=&quot;font-size: 30px;&quot;&gt;W&lt;/font&gt;&lt;/b&gt;" style="text;html=1;strokeColor=none;fillColor=none;align=center;verticalAlign=middle;whiteSpace=wrap;rounded=0;" parent="ta9T8yQsvxKugUh9Nd6L-8" vertex="1">
          <mxGeometry x="180" y="290" width="60" height="30" as="geometry" />
        </mxCell>
        <mxCell id="ta9T8yQsvxKugUh9Nd6L-13" value="&lt;b&gt;&lt;font style=&quot;font-size: 30px;&quot;&gt;H&lt;/font&gt;&lt;/b&gt;" style="text;html=1;strokeColor=none;fillColor=none;align=center;verticalAlign=middle;whiteSpace=wrap;rounded=0;" parent="ta9T8yQsvxKugUh9Nd6L-8" vertex="1">
          <mxGeometry y="120" width="60" height="30" as="geometry" />
        </mxCell>
        <mxCell id="ta9T8yQsvxKugUh9Nd6L-14" value="&lt;b style=&quot;font-size: 30px;&quot;&gt;C&lt;sub style=&quot;&quot;&gt;in&lt;/sub&gt;&lt;/b&gt;" style="text;html=1;strokeColor=none;fillColor=none;align=center;verticalAlign=middle;whiteSpace=wrap;rounded=0;fontSize=20;" parent="ta9T8yQsvxKugUh9Nd6L-8" vertex="1">
          <mxGeometry x="320" width="60" height="30" as="geometry" />
        </mxCell>
        <mxCell id="UZDksRgdLpu6_1tCmabi-27" style="edgeStyle=orthogonalEdgeStyle;rounded=0;orthogonalLoop=1;jettySize=auto;html=1;" parent="1" edge="1">
          <mxGeometry relative="1" as="geometry">
            <mxPoint x="371.6705117327524" y="422.3349999999998" as="sourcePoint" />
            <mxPoint x="660" y="422" as="targetPoint" />
          </mxGeometry>
        </mxCell>
        <mxCell id="UZDksRgdLpu6_1tCmabi-28" style="edgeStyle=orthogonalEdgeStyle;rounded=0;orthogonalLoop=1;jettySize=auto;html=1;exitX=0;exitY=0;exitDx=260;exitDy=130;exitPerimeter=0;entryX=-0.01;entryY=0.497;entryDx=0;entryDy=0;entryPerimeter=0;" parent="1" source="ta9T8yQsvxKugUh9Nd6L-11" target="tAQLiF5_e78hBvcNN1Tl-5" edge="1">
          <mxGeometry relative="1" as="geometry">
            <mxPoint x="1081.670068138369" y="422.3095864947845" as="sourcePoint" />
            <mxPoint x="1210" y="424" as="targetPoint" />
          </mxGeometry>
        </mxCell>
        <mxCell id="UZDksRgdLpu6_1tCmabi-29" value="" style="group" parent="1" vertex="1" connectable="0">
          <mxGeometry x="1020" y="230" width="60" height="355" as="geometry" />
        </mxCell>
        <mxCell id="UZDksRgdLpu6_1tCmabi-7" value="" style="shape=cube;whiteSpace=wrap;html=1;boundedLbl=1;backgroundOutline=1;darkOpacity=0.05;darkOpacity2=0.1;size=40;fillColor=#bac8d3;strokeColor=#23445d;" parent="UZDksRgdLpu6_1tCmabi-29" vertex="1">
          <mxGeometry width="60" height="60" as="geometry" />
        </mxCell>
        <mxCell id="UZDksRgdLpu6_1tCmabi-9" value="&lt;b&gt;&lt;font style=&quot;font-size: 36px;&quot;&gt;. . .&lt;/font&gt;&lt;/b&gt;" style="text;html=1;strokeColor=none;fillColor=none;align=center;verticalAlign=middle;whiteSpace=wrap;rounded=0;rotation=90;" parent="UZDksRgdLpu6_1tCmabi-29" vertex="1">
          <mxGeometry x="3" y="212" width="62" height="30" as="geometry" />
        </mxCell>
        <mxCell id="UZDksRgdLpu6_1tCmabi-24" value="" style="shape=cube;whiteSpace=wrap;html=1;boundedLbl=1;backgroundOutline=1;darkOpacity=0.05;darkOpacity2=0.1;size=40;fillColor=#b1ddf0;strokeColor=#10739e;" parent="UZDksRgdLpu6_1tCmabi-29" vertex="1">
          <mxGeometry y="100" width="60" height="60" as="geometry" />
        </mxCell>
        <mxCell id="UZDksRgdLpu6_1tCmabi-25" value="" style="shape=cube;whiteSpace=wrap;html=1;boundedLbl=1;backgroundOutline=1;darkOpacity=0.05;darkOpacity2=0.1;size=40;fillColor=#b0e3e6;strokeColor=#0e8088;" parent="UZDksRgdLpu6_1tCmabi-29" vertex="1">
          <mxGeometry y="295" width="60" height="60" as="geometry" />
        </mxCell>
        <mxCell id="ta9T8yQsvxKugUh9Nd6L-1" value="" style="group" parent="1" vertex="1" connectable="0">
          <mxGeometry x="34" y="264" width="380" height="320" as="geometry" />
        </mxCell>
        <mxCell id="ta9T8yQsvxKugUh9Nd6L-2" value="" style="shape=cube;whiteSpace=wrap;html=1;boundedLbl=1;backgroundOutline=1;darkOpacity=0.05;darkOpacity2=0.1;size=10;fillColor=#f8cecc;strokeColor=#b85450;" parent="ta9T8yQsvxKugUh9Nd6L-1" vertex="1">
          <mxGeometry x="60" y="10" width="260" height="250" as="geometry" />
        </mxCell>
        <mxCell id="ta9T8yQsvxKugUh9Nd6L-3" value="" style="shape=cube;whiteSpace=wrap;html=1;boundedLbl=1;backgroundOutline=1;darkOpacity=0.05;darkOpacity2=0.1;size=10;fillColor=#ffe6cc;strokeColor=#d79b00;" parent="ta9T8yQsvxKugUh9Nd6L-1" vertex="1">
          <mxGeometry x="70" y="20" width="260" height="250" as="geometry" />
        </mxCell>
        <mxCell id="ta9T8yQsvxKugUh9Nd6L-4" value="" style="shape=cube;whiteSpace=wrap;html=1;boundedLbl=1;backgroundOutline=1;darkOpacity=0.05;darkOpacity2=0.1;size=10;fillColor=#fff2cc;strokeColor=#d6b656;" parent="ta9T8yQsvxKugUh9Nd6L-1" vertex="1">
          <mxGeometry x="80" y="30" width="260" height="250" as="geometry" />
        </mxCell>
        <mxCell id="ta9T8yQsvxKugUh9Nd6L-5" value="&lt;b&gt;&lt;font style=&quot;font-size: 30px;&quot;&gt;W&lt;/font&gt;&lt;/b&gt;" style="text;html=1;strokeColor=none;fillColor=none;align=center;verticalAlign=middle;whiteSpace=wrap;rounded=0;" parent="ta9T8yQsvxKugUh9Nd6L-1" vertex="1">
          <mxGeometry x="180" y="290" width="60" height="30" as="geometry" />
        </mxCell>
        <mxCell id="ta9T8yQsvxKugUh9Nd6L-6" value="&lt;b&gt;&lt;font style=&quot;font-size: 30px;&quot;&gt;H&lt;/font&gt;&lt;/b&gt;" style="text;html=1;strokeColor=none;fillColor=none;align=center;verticalAlign=middle;whiteSpace=wrap;rounded=0;" parent="ta9T8yQsvxKugUh9Nd6L-1" vertex="1">
          <mxGeometry y="120" width="60" height="30" as="geometry" />
        </mxCell>
        <mxCell id="ta9T8yQsvxKugUh9Nd6L-7" value="&lt;b style=&quot;font-size: 30px;&quot;&gt;C&lt;sub style=&quot;&quot;&gt;in&lt;/sub&gt;&lt;/b&gt;" style="text;html=1;strokeColor=none;fillColor=none;align=center;verticalAlign=middle;whiteSpace=wrap;rounded=0;fontSize=20;" parent="ta9T8yQsvxKugUh9Nd6L-1" vertex="1">
          <mxGeometry x="320" width="60" height="30" as="geometry" />
        </mxCell>
        <mxCell id="7Qzzs1CwmsUikivAQ_q--1" value="" style="group" parent="1" vertex="1" connectable="0">
          <mxGeometry x="450" y="360" width="120" height="120" as="geometry" />
        </mxCell>
        <mxCell id="UZDksRgdLpu6_1tCmabi-17" value="" style="shape=cube;whiteSpace=wrap;html=1;boundedLbl=1;backgroundOutline=1;darkOpacity=0.05;darkOpacity2=0.1;size=10;" parent="7Qzzs1CwmsUikivAQ_q--1" vertex="1">
          <mxGeometry width="100" height="100" as="geometry" />
        </mxCell>
        <mxCell id="UZDksRgdLpu6_1tCmabi-18" value="" style="shape=cube;whiteSpace=wrap;html=1;boundedLbl=1;backgroundOutline=1;darkOpacity=0.05;darkOpacity2=0.1;size=10;" parent="7Qzzs1CwmsUikivAQ_q--1" vertex="1">
          <mxGeometry x="10" y="10" width="100" height="100" as="geometry" />
        </mxCell>
        <mxCell id="UZDksRgdLpu6_1tCmabi-19" value="" style="shape=cube;whiteSpace=wrap;html=1;boundedLbl=1;backgroundOutline=1;darkOpacity=0.05;darkOpacity2=0.1;size=10;" parent="7Qzzs1CwmsUikivAQ_q--1" vertex="1">
          <mxGeometry x="20" y="20" width="100" height="100" as="geometry" />
        </mxCell>
        <mxCell id="Aem5M7W_eRZbwuR8MGYX-2" value="&lt;b style=&quot;font-size: 30px;&quot;&gt;C&lt;sub&gt;out&lt;/sub&gt;&lt;/b&gt;" style="text;html=1;strokeColor=none;fillColor=none;align=center;verticalAlign=middle;whiteSpace=wrap;rounded=0;fontSize=20;" parent="1" vertex="1">
          <mxGeometry x="1140" y="330" width="60" height="30" as="geometry" />
        </mxCell>
      </root>
    </mxGraphModel>
  </diagram>
  <diagram id="5DYCnonbg8uohMjSPTKY" name="Page-3">
    <mxGraphModel dx="1434" dy="843" grid="1" gridSize="10" guides="1" tooltips="1" connect="1" arrows="1" fold="1" page="1" pageScale="1" pageWidth="827" pageHeight="1169" math="0" shadow="0">
      <root>
        <mxCell id="0" />
        <mxCell id="1" parent="0" />
      </root>
    </mxGraphModel>
  </diagram>
</mxfile>
